<?xml version="1.0" encoding="utf-8"?>
<!-- Generator: Adobe Illustrator 25.4.1, SVG Export Plug-In . SVG Version: 6.00 Build 0)  -->
<svg version="1.1" id="图层_1" xmlns="http://www.w3.org/2000/svg" xmlns:xlink="http://www.w3.org/1999/xlink" x="0px" y="0px"
	 viewBox="0 0 14.4 14.4" style="enable-background:new 0 0 14.4 14.4;" xml:space="preserve">
<style type="text/css">
	.st0{fill:#1F2EFF;}
</style>
<path class="st0" d="M11.1,6l2.6,6.6h-1.3l-0.7-1.8H9.3l-0.7,1.8H7.3L9.9,6H11.1z M6,1.2v1.2h3.6v1.2H8.4C8,5,7.2,6.3,6.2,7.4
	c0.4,0.4,0.9,0.7,1.4,1L7.2,9.5C6.6,9.2,6,8.7,5.4,8.2c-1.1,1-2.3,1.7-3.7,2.1L1.4,9.2c1.2-0.4,2.3-1,3.2-1.8
	C3.9,6.6,3.3,5.7,2.9,4.8h1.3C4.5,5.4,4.9,6,5.4,6.5c0.8-0.9,1.3-1.9,1.7-2.9l-5.9,0V2.4h3.6V1.2H6z M10.5,7.7L9.8,9.6h1.5L10.5,7.7
	z"/>
</svg>
